<svg viewBox="0 0 38 38" xmlns="http://www.w3.org/2000/svg" xmlns:xlink="http://www.w3.org/1999/xlink" width="38.000000" height="38.000000" fill="none">
	<rect id="mdi:password" width="38.000000" height="38.000000" x="0.000000" y="0.000000" fill="rgb(255,255,255)" fill-opacity="0" />
	<path id="Vector" d="M19.0002 26.9167C19.84 26.9167 20.6455 26.583 21.2393 25.9892C21.8332 25.3953 22.1668 24.5898 22.1668 23.75C22.1668 22.9101 21.8332 22.1047 21.2393 21.5108C20.6455 20.917 19.84 20.5833 19.0002 20.5833C18.1603 20.5833 17.3549 20.917 16.761 21.5108C16.1671 22.1047 15.8335 22.9101 15.8335 23.75C15.8335 24.5898 16.1671 25.3953 16.761 25.9892C17.3549 26.583 18.1603 26.9167 19.0002 26.9167ZM28.5002 12.6667C29.34 12.6667 30.1455 13.0003 30.7393 13.5942C31.3332 14.188 31.6668 14.9935 31.6668 15.8333L31.6668 31.6667C31.6668 32.5065 31.3332 33.312 30.7393 33.9058C30.1455 34.4997 29.34 34.8333 28.5002 34.8333L9.50016 34.8333C8.66031 34.8333 7.85486 34.4997 7.26099 33.9058C6.66713 33.312 6.3335 32.5065 6.3335 31.6667L6.3335 15.8333C6.3335 14.9935 6.66713 14.188 7.26099 13.5942C7.85486 13.0003 8.66031 12.6667 9.50016 12.6667L11.0835 12.6667L11.0835 9.5C11.0835 7.40036 11.9176 5.38673 13.4022 3.90207C14.8869 2.4174 16.9005 1.58333 19.0002 1.58333C20.0398 1.58333 21.0692 1.7881 22.0297 2.18595C22.9902 2.5838 23.863 3.16694 24.5981 3.90207C25.3332 4.6372 25.9164 5.50992 26.3142 6.47042C26.7121 7.43091 26.9168 8.46036 26.9168 9.5L26.9168 12.6667L28.5002 12.6667ZM19.0002 4.75C17.7404 4.75 16.5322 5.25044 15.6414 6.14124C14.7506 7.03204 14.2502 8.24022 14.2502 9.5L14.2502 12.6667L23.7502 12.6667L23.7502 9.5C23.7502 8.24022 23.2497 7.03204 22.3589 6.14124C21.4681 5.25044 20.2599 4.75 19.0002 4.75Z" fill="rgb(255,255,255)" fill-rule="nonzero" />
</svg>
