<svg viewBox="0 0 24 24" xmlns="http://www.w3.org/2000/svg" xmlns:xlink="http://www.w3.org/1999/xlink" width="24.000000" height="24.000000" fill="none">
	<rect id="fluent:eye-off-16-regular" width="24.000000" height="24.000000" x="0.000000" y="0.000000" fill="rgb(255,255,255)" fill-opacity="0" />
	<path id="Vector" d="M15.1809 16.2414L21.2199 22.2819C21.2897 22.3517 21.3725 22.407 21.4636 22.4447C21.5547 22.4825 21.6523 22.5019 21.7509 22.5019C21.8496 22.5019 21.9472 22.4825 22.0383 22.4447C22.1294 22.407 22.2122 22.3517 22.2819 22.2819C22.3517 22.2122 22.407 22.1294 22.4447 22.0383C22.4825 21.9472 22.5019 21.8496 22.5019 21.7509C22.5019 21.6523 22.4825 21.5547 22.4447 21.4636C22.407 21.3725 22.3517 21.2897 22.2819 21.2199L2.78195 1.71995C2.71222 1.65022 2.62943 1.5949 2.53832 1.55716C2.44721 1.51942 2.34956 1.5 2.25095 1.5C2.15233 1.5 2.05468 1.51942 1.96357 1.55716C1.87246 1.5949 1.78968 1.65022 1.71995 1.71995C1.65022 1.78968 1.5949 1.87246 1.55716 1.96357C1.51942 2.05468 1.5 2.15233 1.5 2.25095C1.5 2.34956 1.51942 2.44721 1.55716 2.53832C1.5949 2.62943 1.65022 2.71222 1.71995 2.78195L6.56495 7.62695C5.90552 8.09408 5.31217 8.64808 4.80095 9.27395C4.07705 10.1622 3.51038 11.1677 3.12545 12.2469C3.09395 12.3384 3.05495 12.4644 3.05495 12.4644L3.02795 12.5574C3.02795 12.5574 2.91395 13.3029 3.56045 13.4739C3.75259 13.5247 3.95704 13.4972 4.12888 13.3973C4.30072 13.2975 4.42591 13.1335 4.47695 12.9414L4.47845 12.9369L4.49045 12.8994L4.54295 12.7359C4.86988 11.8247 5.3492 10.9757 5.96045 10.2249C6.44097 9.63434 7.00964 9.12132 7.64645 8.70395L10.0134 11.0709C9.53579 11.3703 9.13178 11.7735 8.83146 12.2506C8.53113 12.7277 8.34223 13.2663 8.2788 13.8264C8.21536 14.3866 8.27903 14.9538 8.46507 15.486C8.6511 16.0181 8.95472 16.5015 9.35333 16.9001C9.75194 17.2987 10.2353 17.6023 10.7674 17.7883C11.2996 17.9744 11.8668 18.038 12.427 17.9746C12.9871 17.9112 13.5257 17.7223 14.0028 17.4219C14.4799 17.1216 14.8831 16.7176 15.1824 16.2399M14.0724 15.1299C13.9286 15.469 13.7038 15.7676 13.4176 15.9995C13.1315 16.2314 12.7928 16.3895 12.4313 16.46C12.0697 16.5304 11.6965 16.511 11.3442 16.4035C10.9919 16.2959 10.6714 16.1036 10.4108 15.8433C10.1503 15.583 9.95759 15.2627 9.84971 14.9105C9.74183 14.5583 9.72205 14.1851 9.79211 13.8235C9.86217 13.4619 10.0199 13.123 10.2515 12.8366C10.4831 12.5502 10.7815 12.3251 11.1204 12.1809L14.0724 15.1299ZM9.48095 6.30095L10.7619 7.58195C11.1519 7.52945 11.5644 7.50095 12.0009 7.50095C15.0669 7.50095 16.9299 8.86895 18.0429 10.2264C18.6543 10.9771 19.1336 11.8262 19.4604 12.7374C19.4859 12.8094 19.5024 12.8649 19.5129 12.9009L19.5249 12.9384L19.5249 12.9429L19.5264 12.9444C19.5819 13.1316 19.7083 13.2898 19.8785 13.3854C20.0488 13.4809 20.2496 13.5062 20.4383 13.456C20.627 13.4059 20.7887 13.284 20.889 13.1165C20.9893 12.949 21.0203 12.749 20.9754 12.5589L20.9754 12.5544L20.9739 12.5484L20.9679 12.5289C20.942 12.4342 20.9119 12.3406 20.8779 12.2484C20.493 11.1692 19.9263 10.1637 19.2024 9.27545C17.8584 7.63445 15.5949 6.00095 12.0039 6.00095C11.0769 6.00095 10.2384 6.10895 9.48245 6.29945" fill="rgb(255,255,255)" fill-rule="nonzero" />
</svg>
