<svg viewBox="0 0 22.4136 22.6017" xmlns="http://www.w3.org/2000/svg" xmlns:xlink="http://www.w3.org/1999/xlink" width="22.413574" height="22.601654" fill="none">
	<rect id="trash 1" width="22.413675" height="22.601665" x="0.000000" y="0.000000" fill="rgb(255,255,255)" fill-opacity="0" transform="matrix(-1,0,0,1,22.4136,0)" />
	<path id="Vector" d="M22.0134 2.82521L16.8103 2.82521L15.1292 0.847562C14.9055 0.584403 14.6155 0.37081 14.282 0.223699C13.9486 0.076588 13.5809 1.37227e-16 13.2081 0L9.20562 6.6653e-16C8.8328 6.02817e-16 8.46511 0.076588 8.13165 0.223699C7.79819 0.37081 7.50813 0.584403 7.28444 0.847562L5.60342 2.82521L0.400244 2.82521C0.294093 2.82521 0.192289 2.86242 0.117229 2.92864C0.0421685 2.99487 1.08313e-16 3.0847 0 3.17836L7.77631e-17 3.88466C1.36085e-16 3.97832 0.0421685 4.06815 0.117229 4.13438C0.192289 4.20061 0.294093 4.23781 0.400244 4.23781L1.34582 4.23781L3.00683 20.6726C3.06055 21.1995 3.33573 21.6896 3.77827 22.0466C4.22081 22.4036 4.79869 22.6016 5.39829 22.6017L17.0154 22.6017C17.615 22.6016 18.1929 22.4036 18.6354 22.0466C19.0779 21.6896 19.3531 21.1995 19.4068 20.6726L21.0679 4.23781L22.0134 4.23781C22.1196 4.23781 22.2214 4.20061 22.2964 4.13438C22.3715 4.06815 22.4137 3.97832 22.4137 3.88466L22.4137 3.17836C22.4137 3.0847 22.3715 2.99487 22.2964 2.92864C22.2214 2.86242 22.1196 2.82521 22.0134 2.82521ZM8.56523 1.69512C8.64006 1.60766 8.7368 1.53664 8.84789 1.48763C8.95898 1.43862 9.08141 1.41294 9.20562 1.4126L13.2081 1.4126C13.3323 1.41294 13.4547 1.43862 13.5658 1.48763C13.6769 1.53664 13.7736 1.60766 13.8484 1.69512L14.809 2.82521L7.60464 2.82521L8.56523 1.69512ZM17.8109 20.5446C17.7944 20.7206 17.7034 20.8846 17.556 21.0041C17.4085 21.1235 17.2155 21.1896 17.0154 21.1891L5.39829 21.1891C5.19815 21.1896 5.00515 21.1235 4.85772 21.0041C4.7103 20.8846 4.61929 20.7206 4.60281 20.5446L2.9518 4.23781L19.4619 4.23781L17.8109 20.5446Z" fill="rgb(254,175,0)" fill-rule="nonzero" transform="matrix(-1,0,0,1,22.4136,0)" />
</svg>
