<svg viewBox="0 0 26.6162 23.8573" xmlns="http://www.w3.org/2000/svg" xmlns:xlink="http://www.w3.org/1999/xlink" width="26.616211" height="23.857300" fill="none">
	<rect id="pen 1" width="26.616238" height="23.857313" x="0.000000" y="0.000000" fill="rgb(255,255,255)" fill-opacity="0" />
	<path id="Vector" d="M25.6406 2.62151L23.6907 0.873681C23.0414 0.291227 22.1898 0 21.3383 0C20.4868 0 19.6353 0.291227 18.9855 0.873215L0.667081 17.2928L0.00687306 22.6151C-0.0763027 23.2851 0.512686 23.8573 1.24411 23.8573C1.29038 23.8573 1.33665 23.855 1.38395 23.8503L7.3175 23.2627L25.6411 6.83847C26.9402 5.67403 26.9402 3.78595 25.6406 2.62151ZM6.55384 21.8388L1.71769 22.3192L2.25626 17.9778L15.9745 5.68149L20.2773 9.53827L6.55384 21.8388ZM24.4647 5.78447L21.4532 8.48379L17.1504 4.62701L20.1619 1.92769C20.4759 1.64625 20.8939 1.49108 21.3383 1.49108C21.7828 1.49108 22.2002 1.64625 22.5148 1.92769L24.4647 3.67552C25.113 4.25704 25.113 5.20294 24.4647 5.78447Z" fill="rgb(254,175,0)" fill-rule="nonzero" />
</svg>
