<svg viewBox="0 0 69 66" xmlns="http://www.w3.org/2000/svg" xmlns:xlink="http://www.w3.org/1999/xlink" width="69.000000" height="66.000000" fill="none" customFrame="#0EA5E9">
	<g id="Сочетание 1">
		<g id="Group">
			<path id="Vector" d="M67.9196 52.7724C68.5163 52.7724 69 52.3099 69 51.739L69 15.3633C69 15.0892 68.8863 14.8265 68.6837 14.6325L57.1598 3.60963C56.9569 3.41589 56.6823 3.30709 56.3958 3.30709L32.1231 3.30709L32.1231 3.1002C32.1231 1.39077 30.6692 0 28.882 0L3.24111 0C1.45399 0 0 1.39077 0 3.1002L0 36.4446C0 38.1541 1.45399 39.5448 3.24111 39.5448L11.5239 39.5448L11.5239 64.9666C11.5239 65.5374 12.0075 66 12.6044 66L67.9196 66C68.5163 66 69 65.5375 69 64.9666L69 57.2505C69 56.6797 68.5165 56.217 67.9196 56.217C67.3228 56.217 66.8392 56.6796 66.8392 57.2505L66.8392 63.9331L13.6848 63.9331L13.6848 39.5448L28.882 39.5448C30.6692 39.5448 32.1231 38.1541 32.1231 36.4446L32.1231 18.6695C32.1231 18.0987 31.6396 17.6361 31.0427 17.6361C30.4458 17.6361 29.9623 18.0986 29.9623 18.6695L29.9623 36.4448C29.9623 37.0147 29.4777 37.4782 28.8819 37.4782L3.24111 37.4782C2.64531 37.4782 2.1607 37.0147 2.1607 36.4448L2.1607 3.1002C2.1607 2.5303 2.64531 2.06675 3.24111 2.06675L28.882 2.06675C29.4778 2.06675 29.9624 2.5303 29.9624 3.1002L29.9624 13.1586C29.9624 13.7294 30.446 14.1921 31.0429 14.1921C31.6397 14.1921 32.1233 13.7295 32.1233 13.1586L32.1233 5.37371L55.319 5.37371C55.3174 5.39653 55.3154 5.41935 55.3154 5.44255L55.3154 15.3632C55.3154 15.934 55.7989 16.3966 56.3958 16.3966L66.7673 16.3966C66.7917 16.3966 66.8154 16.3947 66.8393 16.3931L66.8393 51.7391C66.8393 52.3099 67.3228 52.7724 67.9196 52.7724ZM57.4761 14.3299L57.4761 6.83512L65.3115 14.3299L57.4761 14.3299Z" fill="#0EA5E9" fill-rule="nonzero" />
		</g>
		<g id="Group">
			<path id="Vector" d="M26.7214 47.3987L19.5189 47.3987C18.9222 47.3987 18.4385 47.8612 18.4385 48.4321C18.4385 49.0029 18.922 49.4656 19.5189 49.4656L26.7214 49.4656C27.3182 49.4656 27.8019 49.003 27.8019 48.4321C27.8017 47.8613 27.3182 47.3987 26.7214 47.3987Z" fill="#0EA5E9" fill-rule="nonzero" />
		</g>
		<g id="Group">
			<path id="Vector" d="M26.7214 52.9102L19.5189 52.9102C18.9222 52.9102 18.4385 53.3727 18.4385 53.9437C18.4385 54.5145 18.922 54.9771 19.5189 54.9771L26.7214 54.9771C27.3182 54.9771 27.8019 54.5146 27.8019 53.9437C27.8017 53.3727 27.3182 52.9102 26.7214 52.9102Z" fill="#0EA5E9" fill-rule="nonzero" />
		</g>
		<g id="Group">
			<path id="Vector" d="M48.3291 31.9666C43.9134 31.9666 39.7973 33.6453 36.7391 36.6937C36.3259 37.1055 36.3399 37.7596 36.7705 38.1548C37.2012 38.5502 37.885 38.5366 38.2981 38.1248C40.945 35.4865 44.5075 34.0334 48.3291 34.0334C55.994 34.0334 62.2299 39.9982 62.2299 47.3299C62.2299 54.6615 55.994 60.6263 48.3291 60.6263C40.6642 60.6263 34.4283 54.6615 34.4283 47.3299C34.4283 45.1645 34.9549 43.1001 35.9937 41.1938C36.2694 40.6876 36.0641 40.0635 35.5351 39.7997C35.006 39.5363 34.3535 39.7324 34.0776 40.2385C32.8936 42.4117 32.2676 44.8639 32.2676 47.3299C32.2676 55.8012 39.4728 62.6932 48.3292 62.6932C57.1856 62.6932 64.3909 55.8012 64.3909 47.3299C64.3909 38.8585 57.1853 31.9666 48.3291 31.9666Z" fill="#0EA5E9" fill-rule="nonzero" />
		</g>
		<g id="Group">
			<path id="Vector" d="M50.7952 46.4342L49.121 46.3871L49.121 40.6471L52.9384 40.6471C53.5351 40.6471 54.0188 40.1846 54.0188 39.6137C54.0188 39.0429 53.5353 38.5802 52.9384 38.5802L49.121 38.5802L49.121 37.409C49.121 36.8382 48.6375 36.3755 48.0406 36.3755C47.4439 36.3755 46.9602 36.8381 46.9602 37.409L46.9602 38.5802L45.8798 38.5802C44.0927 38.5802 42.6387 39.971 42.6387 41.6804L42.6387 45.2629C42.6387 46.9666 44.0832 48.354 45.8623 48.3631L46.9602 48.3939L46.9602 54.0122L43.7191 54.0122C43.1223 54.0122 42.6387 54.4748 42.6387 55.0457C42.6387 55.6165 43.1222 56.0791 43.7191 56.0791L46.9602 56.0791L46.9602 57.2504C46.9602 57.8212 47.4437 58.2838 48.0406 58.2838C48.6374 58.2838 49.121 57.8213 49.121 57.2504L49.121 56.0791L50.7776 56.0791C52.5647 56.0791 54.0187 54.6884 54.0187 52.9789L54.0187 49.5343C54.0188 47.8307 52.5743 46.4434 50.7952 46.4342ZM46.9603 46.3263L45.9119 46.2968C45.9013 46.2966 45.8907 46.2964 45.8801 46.2964C45.2843 46.2964 44.7996 45.8329 44.7996 45.263L44.7996 41.6806C44.7996 41.1107 45.2843 40.6471 45.8801 40.6471L46.9605 40.6471L46.9603 46.3263ZM51.8581 52.9792C51.8581 53.5491 51.3735 54.0126 50.7777 54.0126L49.1212 54.0126L49.1212 48.455L50.7459 48.5007C50.7564 48.501 50.7671 48.5011 50.7777 48.5011C51.3735 48.5011 51.8581 48.9647 51.8581 49.5346L51.8581 52.9792Z" fill="#0EA5E9" fill-rule="nonzero" />
		</g>
		<g id="Group">
			<path id="Vector" d="M27.5856 12.1253L22.9759 12.1253C22.3792 12.1253 21.8955 12.5878 21.8955 13.1587L21.8955 17.568C21.8955 18.1388 22.379 18.6014 22.9759 18.6014L27.5856 18.6014C28.1823 18.6014 28.666 18.1389 28.666 17.568L28.666 13.1587C28.666 12.5878 28.1825 12.1253 27.5856 12.1253ZM26.5052 16.5344L24.0563 16.5344L24.0563 14.1921L26.5052 14.1921L26.5052 16.5344Z" fill="#0EA5E9" fill-rule="nonzero" />
		</g>
		<g id="Group">
			<path id="Vector" d="M27.5856 20.9437L22.9759 20.9437C22.3792 20.9437 21.8955 21.4062 21.8955 21.9771L21.8955 35.2047C21.8955 35.7755 22.379 36.2381 22.9759 36.2381L27.5856 36.2381C28.1823 36.2381 28.666 35.7756 28.666 35.2047L28.666 21.9771C28.666 21.4062 28.1825 20.9437 27.5856 20.9437ZM26.5052 34.1712L24.0563 34.1712L24.0563 23.0105L26.5052 23.0105L26.5052 34.1712Z" fill="#0EA5E9" fill-rule="nonzero" />
		</g>
		<g id="Group">
			<path id="Vector" d="M64.0538 24.3684L58.1689 19.0231C57.7364 18.6299 57.0526 18.6471 56.6416 19.0608C56.2305 19.4746 56.2485 20.1287 56.6811 20.5217L61.7619 25.1368L60.8651 25.9946L45.3322 11.1363C45.1813 10.9921 44.9892 10.8937 44.7801 10.8538L40.7767 10.0879L38.8494 8.05521C38.4485 7.63227 37.765 7.6003 37.3233 7.9838C36.8814 8.36717 36.848 9.02059 37.2487 9.44353C37.2487 9.44353 39.4702 11.7686 39.544 11.8152L40.2491 15.1875C40.2909 15.3875 40.3937 15.5712 40.5445 15.7156L57.7588 32.1816C58.3907 32.7859 59.2206 33.0879 60.0506 33.0879C60.8806 33.0879 61.7105 32.7859 62.3423 32.1816L62.3424 32.1816L62.5461 31.9867C63.8095 30.7779 63.8095 28.8111 62.5461 27.6024L62.3932 27.4562L64.0739 25.8487C64.4975 25.4434 64.4883 24.7629 64.0538 24.3684ZM42.3037 14.4756L41.871 12.4052L44.0355 12.8192L54.4483 22.7795L52.7168 24.4357L42.3037 14.4756ZM61.0184 30.5251L60.8149 30.7199C60.3933 31.1226 59.708 31.123 59.2869 30.7199L54.245 25.8971L55.9764 24.2409L61.0184 29.0637C61.4396 29.4665 61.4395 30.1222 61.0184 30.5251Z" fill="#0EA5E9" fill-rule="nonzero" />
		</g>
	</g>
</svg>
