<svg viewBox="0 0 46 46" xmlns="http://www.w3.org/2000/svg" xmlns:xlink="http://www.w3.org/1999/xlink" width="46.000000" height="46.000000" fill="none">
	<rect id="mdi:user" width="46.000000" height="46.000000" x="0.000000" y="0.000000" fill="#0ea5e9" fill-opacity="0" />
	<g id="SVGRepo_iconCarrier">
		<path id="Vector" d="M36.9676 20.9356L35.7344 12.6574C35.5576 11.4697 34.6845 10.5385 33.571 10.3499L25.8103 9.03445C24.9864 8.89478 24.1496 9.18482 23.5601 9.81361L7.76284 26.6641C6.74572 27.7491 6.74572 29.5077 7.76284 30.5927L16.7569 40.1863C17.774 41.2713 19.4227 41.2713 20.44 40.1862L36.2372 23.3358C36.8267 22.7069 37.0986 21.8144 36.9676 20.9356ZM19.7638 38.0363C19.3664 38.4602 18.7217 38.4602 18.3242 38.0363L9.7785 28.9209C9.38106 28.4968 9.38106 27.8092 9.7785 27.3852C10.1758 26.9615 10.8206 26.9613 11.2181 27.3852L19.7638 36.5007C20.1612 36.9247 20.1611 37.6124 19.7638 38.0363ZM31.2601 18.0812C30.4941 18.8982 29.2522 18.8982 28.4864 18.0812C27.7204 17.2641 27.7203 15.9397 28.4864 15.1226C29.2523 14.3055 30.494 14.3055 31.2601 15.1226C32.0259 15.9396 32.0259 17.2642 31.2601 18.0812Z" fill="#0ea5e9" fill-rule="nonzero" />
	</g>
</svg>
